<svg xmlns="http://www.w3.org/2000/svg" viewBox="0 0 600 600">
<path d="M297.4 427.6h42.9V323.1l101.2-150.7h-101l-38.5 75"/><path d="M297.4 427.6h42.9V323.1l101.2-150.7h-101l-38.5 75"/><path d="M302 247.4l-40.3-75H158.5l95.8 151.2 0.2 104h42.9"/><path d="M302 247.4l-40.3-75H158.5l95.8 151.2 0.2 104h42.9"/><path d="M297.4 427.6h42.9V323.1l101.2-150.7h-101l-38.5 75 0 0 -40.3-75H158.5l95.8 151.2 0.2 104H297.4z"/><path d="M300 583.2c135.5 0 262-118.3 262-264.3 0-10.4 0.1-18.9 10.5-18.9s10.7 8.5 10.7 18.9C583.1 464.9 456.4 583.2 300 583.2z"><animateTransform accumulate="none" additive="replace" attributeName="transform" calcMode="linear" dur="1s" from="360 300 300" repeatCount="indefinite" restart="always" to="0 300 300" type="rotate" fill="remove"/></path></svg>